<svg width="50" height="50" viewBox="0 0 50 50" fill="none" xmlns="http://www.w3.org/2000/svg">
<path d="M34.6699 22.8598L35.1699 34.9298L30.5699 22.5898C32.3499 20.5498 34.5999 17.9698 35.1399 17.3498C35.4799 17.5498 35.8499 17.6998 36.2799 17.6998C37.5399 17.6998 38.5499 16.6798 38.5499 15.4298C38.5499 14.1798 37.5299 13.1598 36.2799 13.1598C35.0299 13.1598 34.0099 14.1798 34.0099 15.4298C34.0099 15.9198 34.1999 16.3598 34.4699 16.7298L30.0899 21.2798L25.4599 8.85982C25.2999 8.43982 24.9599 8.08982 24.5099 7.93982C23.6999 7.65982 22.8099 8.09982 22.5399 8.91982C22.5499 8.93982 11.7499 40.4798 11.7799 40.4998C11.3099 41.7298 13.0499 42.7498 13.8899 41.7198C13.8899 41.7198 22.0099 32.3998 28.7299 24.6998C32.0899 32.6998 35.4599 40.7298 35.4599 40.7298C35.7899 41.5898 37.1599 41.3298 37.1499 40.4098L37.8799 22.8598C37.9399 20.6498 34.6299 20.6598 34.6699 22.8598ZM16.1499 35.7698L24.1299 13.7198C24.9799 15.7498 26.1799 18.5998 28.1499 23.2898L16.1499 35.7698Z" fill="#414042"/>
<path d="M43.4103 4.74023L43.9603 6.43023H45.7303L44.3003 7.47023L44.8403 9.16023L43.4103 8.12023L41.9703 9.16023L42.5203 7.47023L41.0903 6.43023H42.8603L43.4103 4.74023Z" fill="#414042"/>
<path d="M15.4901 0L16.1801 2.13H18.4101L16.6001 3.44L17.3001 5.57L15.4901 4.25L13.6801 5.57L14.3701 3.44L12.5601 2.13H14.8001L15.4901 0Z" fill="#414042"/>
<path d="M47.1101 32.8105L47.4701 33.9405H48.6501L47.7001 34.6305L48.0601 35.7505L47.1101 35.0605L46.1501 35.7505L46.5201 34.6305L45.5601 33.9405H46.7401L47.1101 32.8105Z" fill="#414042"/>
<path d="M22.7603 44.4297L23.4503 46.5597H25.6903L23.8803 47.8697L24.5703 49.9997L22.7603 48.6897L20.9503 49.9997L21.6503 47.8697L19.8403 46.5597H22.0703L22.7603 44.4297Z" fill="#414042"/>
<path d="M3.1501 26L3.5801 27.31H4.9601L3.8501 28.13L4.2701 29.44L3.1501 28.63L2.0401 29.44L2.4601 28.13L1.3501 27.31H2.7301L3.1501 26Z" fill="#414042"/>
</svg>
