<svg width="50" height="50" viewBox="0 0 50 50" fill="none" xmlns="http://www.w3.org/2000/svg">
<g clip-path="url(#clip0_1908_18)">
<path d="M34.2001 22.7989L34.7201 35.1689L30.0101 22.5189C31.8301 20.4289 34.1401 17.7889 34.6901 17.1489C35.0401 17.3589 35.4201 17.5089 35.8501 17.5089C37.1401 17.5089 38.1801 16.4689 38.1801 15.1789C38.1801 13.8889 37.1401 12.8489 35.8501 12.8489C34.5601 12.8489 33.5201 13.8889 33.5201 15.1789C33.5201 15.6889 33.7101 16.1289 33.9901 16.5089L29.5001 21.1789L24.7601 8.45886C24.6001 8.02886 24.2501 7.66886 23.7901 7.50886C22.9601 7.21886 22.0501 7.67886 21.7701 8.51886C21.7801 8.53886 10.7201 40.8689 10.7401 40.8889C10.2601 42.1489 12.0501 43.1889 12.9101 42.1389C12.9101 42.1389 21.2401 32.5889 28.1201 24.6989C31.5601 32.8989 35.0201 41.1289 35.0201 41.1289C35.3601 42.0089 36.7601 41.7489 36.7601 40.7989L37.5001 22.7989C37.5501 20.5389 34.1601 20.5489 34.2001 22.7989ZM15.2201 36.0389L23.3901 13.4389C24.2601 15.5189 25.4901 18.4389 27.5101 23.2489L15.2201 36.0389Z" fill="#F1593A"/>
<path d="M43.1598 4.69922L43.5998 6.06922H45.0498L43.8798 6.92922L44.3298 8.29922L43.1598 7.44922L41.9798 8.29922L42.4298 6.92922L41.2598 6.06922H42.7098L43.1598 4.69922Z" fill="#F1593A"/>
<path d="M14.5401 0.429688L14.9801 1.79969H16.4301L15.2601 2.64969L15.7101 4.02969L14.5401 3.17969L13.3601 4.02969L13.8101 2.64969L12.6401 1.79969H14.0901L14.5401 0.429688Z" fill="#F1593A"/>
<path d="M46.9498 32.709L47.3998 34.089H48.8398L47.6698 34.939L48.1198 36.319L46.9498 35.469L45.7798 36.319L46.2198 34.939L45.0498 34.089H46.4998L46.9498 32.709Z" fill="#F1593A"/>
<path d="M22.0001 45.9688L22.4401 47.3487H23.8901L22.7201 48.1987L23.1701 49.5687L22.0001 48.7188L20.8201 49.5687L21.2701 48.1987L20.1001 47.3487H21.5501L22.0001 45.9688Z" fill="#F1593A"/>
<path d="M1.9 25.9805L2.34 27.3605H3.79L2.62 28.2105L3.07 29.5905L1.9 28.7405L0.72 29.5905L1.17 28.2105L0 27.3605H1.45L1.9 25.9805Z" fill="#F1593A"/>
<path d="M27.9399 35.2588L27.0599 34.9788L26.5199 35.7288V34.7988L25.6299 34.5188L26.5099 34.2288V33.2988L27.0599 34.0488L27.9399 33.7588L27.3999 34.5088L27.9399 35.2588Z" fill="#F1593A"/>
<path d="M49.9999 22.3702L49.1199 22.0902L48.5799 22.8402L48.5699 21.9102L47.6899 21.6302L48.5699 21.3402V20.4102L49.1099 21.1602L49.9999 20.8702L49.4499 21.6202L49.9999 22.3702Z" fill="#F1593A"/>
<path d="M7.37006 42.3194L6.49006 42.0394L5.95006 42.7894L5.94006 41.8594L5.06006 41.5794L5.94006 41.2894V40.3594L6.49006 41.1094L7.37006 40.8194L6.82006 41.5694L7.37006 42.3194Z" fill="#F1593A"/>
<path d="M13.8 19.45L12.91 19.17L12.37 19.92V19L11.48 18.71L12.37 18.42L12.36 17.5L12.91 18.24L13.79 17.96L13.25 18.71L13.8 19.45Z" fill="#F1593A"/>
<path d="M31.1899 6.65922L30.3099 6.36922L29.7599 7.11922V6.19922L28.8799 5.90922L29.7599 5.61922V4.69922L30.2999 5.44922L31.1799 5.15922L30.6399 5.90922L31.1899 6.65922Z" fill="#F1593A"/>
</g>
<defs>
<clipPath id="clip0_1908_18">
<rect width="50" height="50" fill="white"/>
</clipPath>
</defs>
</svg>
