<?xml version="1.0" encoding="utf-8"?>
<!-- Generator: Adobe Illustrator 27.1.1, SVG Export Plug-In . SVG Version: 6.00 Build 0)  -->
<svg version="1.1" id="Layer_1" xmlns="http://www.w3.org/2000/svg" xmlns:xlink="http://www.w3.org/1999/xlink" x="0px" y="0px"
	 viewBox="0 0 50 50" style="enable-background:new 0 0 50 50;" xml:space="preserve">
<style type="text/css">
	.st0{fill:#F1593A;}
	.st1{fill:#414042;}
	.st2{fill:#FFFFFF;}
</style>
<g>
	<path class="st0" d="M34.67,22.86l0.5,12.07l-4.6-12.34c1.78-2.04,4.03-4.62,4.57-5.24c0.34,0.2,0.71,0.35,1.14,0.35
		c1.26,0,2.27-1.02,2.27-2.27s-1.02-2.27-2.27-2.27s-2.27,1.02-2.27,2.27c0,0.49,0.19,0.93,0.46,1.3l-4.38,4.55L25.46,8.86
		c-0.16-0.42-0.5-0.77-0.95-0.92c-0.81-0.28-1.7,0.16-1.97,0.98c0.01,0.02-10.79,31.56-10.76,31.58c-0.47,1.23,1.27,2.25,2.11,1.22
		c0,0,8.12-9.32,14.84-17.02c3.36,8,6.73,16.03,6.73,16.03c0.33,0.86,1.7,0.6,1.69-0.32l0.73-17.55
		C37.94,20.65,34.63,20.66,34.67,22.86z M16.15,35.77l7.98-22.05c0.85,2.03,2.05,4.88,4.02,9.57L16.15,35.77z"/>
	<polygon class="st0" points="43.41,4.74 43.96,6.43 45.73,6.43 44.3,7.47 44.84,9.16 43.41,8.12 41.97,9.16 42.52,7.47 41.09,6.43 
		42.86,6.43 	"/>
	<polygon class="st0" points="15.49,0 16.18,2.13 18.41,2.13 16.6,3.44 17.3,5.57 15.49,4.25 13.68,5.57 14.37,3.44 12.56,2.13 
		14.8,2.13 	"/>
	<polygon class="st0" points="47.11,32.81 47.47,33.94 48.65,33.94 47.7,34.63 48.06,35.75 47.11,35.06 46.15,35.75 46.52,34.63 
		45.56,33.94 46.74,33.94 	"/>
	<polygon class="st0" points="22.76,44.43 23.45,46.56 25.69,46.56 23.88,47.87 24.57,50 22.76,48.69 20.95,50 21.65,47.87 
		19.84,46.56 22.07,46.56 	"/>
	<polygon class="st0" points="3.15,26 3.58,27.31 4.96,27.31 3.85,28.13 4.27,29.44 3.15,28.63 2.04,29.44 2.46,28.13 1.35,27.31 
		2.73,27.31 	"/>
</g>
</svg>
